<svg width="18" height="14" viewBox="0 0 18 14" fill="none" xmlns="http://www.w3.org/2000/svg">
<path d="M8.46025 0L1.71973 4.86267V8.89933L8.46025 13.762C8.44604 3.388 8.46025 8.47933 8.46025 0Z" fill="#B3B3B3"/>
<path d="M0 10.2293H3.53842V3.52795H0V10.2293Z" fill="#B3B3B3"/>
<path d="M12.7897 13.5986C12.6267 13.599 12.4673 13.5518 12.3316 13.4629C12.1958 13.374 12.0899 13.2474 12.0271 13.0993C11.9841 13 11.9614 12.8933 11.9603 12.7854C11.9592 12.6775 11.9797 12.5705 12.0206 12.4703C12.0615 12.3702 12.1221 12.279 12.1988 12.202C12.2754 12.1249 12.3668 12.0635 12.4676 12.0213C13.1376 11.7415 13.7458 11.3357 14.2581 10.8266C15.3158 9.77857 15.91 8.36112 15.9113 6.88328C15.9062 5.40344 15.3068 3.9857 14.2439 2.93994C13.7306 2.43083 13.1228 2.02367 12.4534 1.74061C12.251 1.65526 12.0911 1.4945 12.0086 1.29341C11.926 1.09232 11.9276 0.867235 12.0129 0.667273C12.0538 0.567481 12.1145 0.476803 12.1917 0.400627C12.2688 0.32445 12.3607 0.264331 12.4619 0.223844C12.5631 0.183356 12.6715 0.163327 12.7808 0.164947C12.89 0.166567 12.9977 0.189803 13.0976 0.233273C14.8464 0.968437 16.2373 2.3437 16.9771 4.06927C17.3585 4.95492 17.555 5.9072 17.555 6.86928C17.5545 7.83085 17.3597 8.78266 16.9818 9.66928C16.6157 10.5264 16.0831 11.3047 15.4139 11.9606C14.7543 12.6298 13.9672 13.1642 13.0976 13.5333C13.0007 13.5757 12.8958 13.5979 12.7897 13.5986Z" fill="#B3B3B3"/>
<path d="M11.2216 10.304C11.0413 10.3038 10.8667 10.2422 10.7272 10.1296C10.5878 10.0171 10.4921 9.86052 10.4564 9.68641C10.4207 9.5123 10.4472 9.33142 10.5314 9.17438C10.6156 9.01735 10.7524 8.89378 10.9184 8.82471C11.3048 8.66296 11.634 8.39244 11.8649 8.0471C12.0958 7.70172 12.218 7.29689 12.2163 6.88338C12.218 6.60286 12.1616 6.32496 12.0505 6.06671C11.9383 5.81592 11.7774 5.58922 11.5769 5.39938C11.3832 5.20282 11.1533 5.04443 10.8995 4.93271C10.732 4.84059 10.605 4.6907 10.543 4.51185C10.4809 4.33301 10.4883 4.1379 10.5636 3.96407C10.6389 3.79025 10.7768 3.65001 10.9507 3.57037C11.1247 3.49072 11.3224 3.47731 11.5058 3.5327C12.0612 3.76688 12.5503 4.13102 12.9305 4.59354C13.3108 5.05605 13.5707 5.60298 13.6879 6.18692C13.805 6.77082 13.7758 7.37408 13.6027 7.9443C13.4297 8.51456 13.118 9.03462 12.6947 9.45938C12.3604 9.79225 11.9629 10.057 11.5247 10.2387C11.4292 10.2803 11.3261 10.3025 11.2216 10.304Z" fill="#B3B3B3"/>
</svg>
