<svg width="80" height="80" viewBox="0 0 80 80" fill="none" xmlns="http://www.w3.org/2000/svg">
<path d="M40 3.23334C47.2738 3.23192 54.3847 5.38764 60.4331 9.42785C66.4818 13.4681 71.1964 19.2113 73.9804 25.9311C76.7647 32.6509 77.4935 40.0455 76.0749 47.1796C74.656 54.3138 71.1535 60.8669 66.0102 66.0102C60.8669 71.1534 54.3138 74.656 47.1796 76.0749C40.0455 77.4934 32.651 76.7647 25.9311 73.9804C19.2113 71.1964 13.4681 66.4818 9.42787 60.4331C5.38765 54.3847 3.23194 47.2738 3.23336 40C3.24666 30.2529 7.12456 20.9089 14.0167 14.0167C20.909 7.12454 30.253 3.24665 40 3.23334ZM40 0C32.0888 0 24.3552 2.34596 17.7772 6.7412C11.1993 11.1365 6.07234 17.3836 3.04484 24.6927C0.0173316 32.0017 -0.774801 40.0444 0.768606 47.8036C2.31202 55.5629 6.12165 62.6902 11.7158 68.2844C17.3098 73.8785 24.4372 77.688 32.1964 79.2313C39.9556 80.7749 47.9982 79.9825 55.3073 76.9553C62.6164 73.9276 68.8636 68.8007 73.2589 62.2229C77.6542 55.6447 80 47.9113 80 40C80 29.3913 75.7858 19.2172 68.2844 11.7157C60.7829 4.21429 50.6087 0 40 0Z" fill="white"/>
</svg>
